<?xml version="1.0" encoding="UTF-8"?>
<svg id="_레이어_1" data-name=" 레이어 1" xmlns="http://www.w3.org/2000/svg" version="1.1" viewBox="0 0 1230 188">
  <defs>
    <style>
      .cls-1 {
        fill: #fff;
        stroke-width: 0px;
      }
    </style>
  </defs>
  <path class="cls-1" d="M42.4,143.7l4.8-7.5V53.3l-7.6-7.5v-.4h62.6v23.8h-.6l-15.8-20.2-22.4-2.3,2.1-.4v96.8l-2.1-.7,22.6-.8,17.1-22.6h.6v25.1h-61.2v-.4ZM87.7,103.1c-2.2-7.7-7.3-11.6-15.4-11.6h-15.7v-1.7h15.7c3.8,0,7-.7,9.7-2.1,2.7-1.4,4.6-3.3,5.6-5.6h.3v21h-.3Z"/>
  <path class="cls-1" d="M113.6,45.8v-.4h32.6v.4l-13.3,18.2-19.3-18.2ZM120.1,49.2h19.2l25.7,70.3-2.7,2.3,22.6-71.7h2.4l-29.9,94.9h-.6l-36.7-95.8ZM174.3,45.8v-.4h21.4v.4l-10.7,8.5-10.7-8.5Z"/>
  <path class="cls-1" d="M204.9,143.7l4.8-7.5V53.3l-7.6-7.5v-.4h62.6v23.8h-.6l-15.8-20.2-22.4-2.3,2.1-.4v96.8l-2.1-.7,22.6-.8,17.1-22.6h.6v25.1h-61.2v-.4ZM250.2,103.1c-2.2-7.7-7.3-11.6-15.4-11.6h-15.7v-1.7h15.7c3.8,0,7-.7,9.7-2.1,2.7-1.4,4.6-3.3,5.6-5.6h.3v21h-.3Z"/>
  <path class="cls-1" d="M346.7,146.1c-7,0-12.1-1.5-15.4-4.6-3.3-3.1-5-7.6-5-13.8v-9.6c0-5.4-.5-9.7-1.6-13-1.1-3.3-3-5.7-5.6-7.3-2.7-1.6-6.3-2.4-10.8-2.4h-6.9v-1.7h5.9c3,0,5.9-.4,8.7-1.2,2.8-.8,5.3-3,7.6-6.6,2.3-3.6,3.5-9,3.5-16.2s-1.1-12-3.2-15.4c-2.1-3.4-4.5-5.5-7.2-6.3-2.7-.8-5.8-1.2-9.4-1.2h-6.5l1.3-.6v94.1h-17.5V53.3l-6.2-7.5v-.4h29.9c7.3,0,13.7.8,19,2.3,5.3,1.5,9.5,4.1,12.7,7.7,3.1,3.6,4.7,8.4,4.7,14.5s-2.4,13.5-7.2,17.5c-4.8,4-10.5,6.3-17.2,7.1v.3c6.8.8,12.4,3.2,16.9,7.1,4.5,3.9,6.8,9.4,6.9,16.5v1.8c.2,8.6.4,14.4.8,17.6.3,3.2,1,5.9,2,8.1v.4ZM278.3,143.7l14.5-18.5,15.9,18.5v.4h-30.5v-.4Z"/>
  <path class="cls-1" d="M356.4,45.8v-.4h31.7v.4l-15,20.5-16.8-20.5ZM387.6,103.5l-26.7-54.2h19.5c0-.1,23.3,47.7,23.3,47.7h.3l21.9-47h2.1l-22.4,48.8v41.6h-18.1v-37ZM379.3,143.7l17.2-16.6,17.4,16.6v.4h-34.6v-.4ZM413.8,45.8v-.4h20.2v.4l-8.5,8.6-11.7-8.6Z"/>
  <path class="cls-1" d="M515,145.8c-13.5,0-23.5-4.2-30-12.6-6.6-8.4-9.9-21.1-9.9-38.1s3.3-29.9,9.9-38.5c6.6-8.7,16.6-13,29.9-13s13.8,1,20.2,3.1v22.4h-.6c-3-7.7-6.4-13.6-10.1-17.7-3.7-4.1-7.6-6.1-11.8-6.1s-9.9,3.7-13.5,11.1c-3.6,7.4-5.4,20.3-5.4,38.7s1.8,31.1,5.4,38.2c3.6,7.1,8.1,10.7,13.5,10.7s8.3-2,12.1-6.1c3.8-4,7.6-10.4,11.4-19h.6v23.4c-7.1,2.3-14.2,3.4-21.6,3.4Z"/>
  <path class="cls-1" d="M550.4,45.8v-.4h32.2v.4l-15.9,18.2-16.2-18.2ZM550.4,143.7l16.2-18.6,15.9,18.6v.4h-32.2v-.4ZM557.3,46.8h18.3v95.9h-18.3V46.8ZM562.7,89.1h52.9v2.5h-52.9v-2.5ZM599.6,45.8v-.4h32.2v.4l-15.9,18.2-16.2-18.2ZM599.6,143.7l16.2-18.6,15.9,18.6v.4h-32.2v-.4ZM606.4,46.8h18.3v95.9h-18.3V46.8Z"/>
  <path class="cls-1" d="M683.1,146c-7.8,0-14.4-1.9-19.9-5.6-5.5-3.8-9.6-9.5-12.5-17.1-2.9-7.6-4.3-17.1-4.3-28.4s1.4-20.9,4.3-28.5c2.9-7.6,7-13.3,12.5-17.1,5.5-3.8,12.1-5.6,19.9-5.6s14.4,1.9,19.9,5.6c5.5,3.8,9.6,9.5,12.5,17.1,2.9,7.6,4.3,17.1,4.3,28.5s-1.4,20.7-4.3,28.4c-2.9,7.6-7,13.3-12.5,17.1-5.5,3.8-12.1,5.6-19.9,5.6ZM683.1,144.3c3.9,0,7.1-1.4,9.7-4.1,2.6-2.7,4.7-7.7,6.1-15,1.5-7.2,2.2-17.4,2.2-30.3s-.7-23.2-2.2-30.5c-1.5-7.2-3.5-12.2-6.1-15-2.6-2.7-5.9-4.1-9.7-4.1s-7.1,1.4-9.7,4.1c-2.6,2.7-4.7,7.7-6.1,15-1.5,7.2-2.2,17.4-2.2,30.5s.7,23.1,2.2,30.3c1.5,7.2,3.5,12.2,6.1,15,2.6,2.7,5.9,4.1,9.7,4.1Z"/>
  <path class="cls-1" d="M774.4,145.8c-13.5,0-23.5-4.2-30-12.6-6.6-8.4-9.9-21.1-9.9-38.1s3.3-29.9,9.9-38.5c6.6-8.7,16.6-13,29.9-13s13.8,1,20.2,3.1v22.4h-.6c-3-7.7-6.4-13.6-10.1-17.7-3.7-4.1-7.6-6.1-11.8-6.1s-9.9,3.7-13.5,11.1c-3.6,7.4-5.4,20.3-5.4,38.7s1.8,31.1,5.4,38.2c3.6,7.1,8.1,10.7,13.5,10.7s8.3-2,12.1-6.1c3.8-4,7.6-10.4,11.4-19h.6v23.4c-7.1,2.3-14.2,3.4-21.6,3.4Z"/>
  <path class="cls-1" d="M845.6,146c-7.8,0-14.4-1.9-19.9-5.6-5.5-3.8-9.6-9.5-12.5-17.1-2.9-7.6-4.3-17.1-4.3-28.4s1.4-20.9,4.3-28.5c2.9-7.6,7-13.3,12.5-17.1,5.5-3.8,12.1-5.6,19.9-5.6s14.4,1.9,19.9,5.6c5.5,3.8,9.6,9.5,12.5,17.1,2.9,7.6,4.3,17.1,4.3,28.5s-1.4,20.7-4.3,28.4c-2.9,7.6-7,13.3-12.5,17.1-5.5,3.8-12.1,5.6-19.9,5.6ZM845.6,144.3c3.9,0,7.1-1.4,9.7-4.1,2.6-2.7,4.7-7.7,6.1-15,1.5-7.2,2.2-17.4,2.2-30.3s-.7-23.2-2.2-30.5c-1.5-7.2-3.5-12.2-6.1-15-2.6-2.7-5.9-4.1-9.7-4.1s-7.1,1.4-9.7,4.1c-2.6,2.7-4.7,7.7-6.1,15-1.5,7.2-2.2,17.4-2.2,30.5s.7,23.1,2.2,30.3c1.5,7.2,3.5,12.2,6.1,15,2.6,2.7,5.9,4.1,9.7,4.1Z"/>
  <path class="cls-1" d="M897.8,143.7l6.2-7.5V49.1h18.3v94.1l-2.1-.7,17.6-1.6,17.2-21.9h.6v25.1h-57.8v-.4ZM899.3,45.8v-.4h27.7v.4l-13.7,23.7-14-23.7Z"/>
  <path class="cls-1" d="M962.2,143.7l7.3-9.2,9,9.2v.4h-16.4v-.4ZM994.2,69.7h1l-25.3,69.7h-2.8l35.7-97.5h.3l35.7,98.3h-19.6c0,.1-25-70.5-25-70.5ZM977.3,116.4h39.8l1,2.5h-42l1.3-2.5ZM1010.6,143.7l16.8-18.5,16.8,18.5v.4h-33.6v-.4Z"/>
  <path class="cls-1" d="M1069.8,46.1l2.1.7-13.3,2-15,20.5h-.7v-23.8h72.1v23.8h-.8l-14.8-20.6-13.3-1.8,2-.6v92.5h-18.3V46.1ZM1062.5,143.7l16.5-17.9,16.5,17.9v.4h-33v-.4Z"/>
  <path class="cls-1" d="M1129.2,143.7l4.8-7.5V53.3l-7.6-7.5v-.4h62.6v23.8h-.6l-15.8-20.2-22.4-2.3,2.1-.4v96.8l-2.1-.7,22.6-.8,17.1-22.6h.6v25.1h-61.2v-.4ZM1174.5,103.1c-2.2-7.7-7.3-11.6-15.4-11.6h-15.7v-1.7h15.7c3.8,0,7-.7,9.7-2.1,2.7-1.4,4.6-3.3,5.6-5.6h.3v21h-.3Z"/>
</svg>