<?xml version="1.0" encoding="UTF-8"?>
<svg xmlns="http://www.w3.org/2000/svg" version="1.1" viewBox="0 0 1500 900">
  <defs>
    <style>
      .cls-1 {
        fill: #ed2939;
      }

      .cls-1, .cls-2, .cls-3, .cls-4, .cls-5, .cls-6, .cls-7, .cls-8 {
        stroke-width: 0px;
      }

      .cls-2, .cls-9 {
        fill: #000;
      }

      .cls-3 {
        fill: #fae042;
      }

      .cls-4 {
        fill: #bb133e;
      }

      .cls-9 {
        stroke: #fff;
        stroke-miterlimit: 10;
        stroke-width: 50px;
      }

      .cls-5 {
        fill: #009246;
      }

      .cls-6 {
        fill: #002664;
      }

      .cls-7 {
        fill: #fff;
      }

      .cls-10 {
        display: none;
      }

      .cls-8 {
        fill: #ce2b37;
      }
    </style>
  </defs>
  <g id="_레이어_1" data-name="레이어 1" class="cls-10">
    <g>
      <path class="cls-4" d="M1.2,0h1500v900H1.2V0Z"/>
      <path class="cls-9" d="M1.2,103.8h1500M1501.2,242.3H1.2M1.2,380.8h1500M1501.2,519.2H1.2M1.2,657.7h1500M1501.2,796.2H1.2"/>
      <path class="cls-6" d="M1.2,0h600v484.6H1.2V0Z"/>
      <g>
        <g id="d">
          <g id="c">
            <g id="e">
              <g id="b">
                <path id="a" class="cls-7" d="M51.2,20.8l14.3,50.1-37.4-31h46.2l-37.4,31,14.3-50.1Z"/>
                <path id="a-2" data-name="a" class="cls-7" d="M51.2,117.7l14.3,50.1-37.4-31h46.2l-37.4,31,14.3-50.1Z"/>
                <path id="a-3" data-name="a" class="cls-7" d="M51.2,214.6l14.3,50.1-37.4-31h46.2l-37.4,31,14.3-50.1Z"/>
                <path id="a-4" data-name="a" class="cls-7" d="M51.2,311.5l14.3,50.1-37.4-31h46.2l-37.4,31,14.3-50.1Z"/>
              </g>
              <path id="a-5" data-name="a" class="cls-7" d="M51.2,408.5l14.3,50.1-37.4-31h46.2l-37.4,31,14.3-50.1Z"/>
            </g>
            <g id="b-2" data-name="b">
              <path id="a-6" data-name="a" class="cls-7" d="M101.2,69.2l14.3,50.1-37.4-31h46.2l-37.4,31,14.3-50.1Z"/>
              <path id="a-7" data-name="a" class="cls-7" d="M101.2,166.2l14.3,50.1-37.4-31h46.2l-37.4,31,14.3-50.1Z"/>
              <path id="a-8" data-name="a" class="cls-7" d="M101.2,263.1l14.3,50.1-37.4-31h46.2l-37.4,31,14.3-50.1Z"/>
              <path id="a-9" data-name="a" class="cls-7" d="M101.2,360l14.3,50.1-37.4-31h46.2l-37.4,31,14.3-50.1Z"/>
            </g>
          </g>
          <g id="c-2" data-name="c">
            <g id="e-2" data-name="e">
              <g id="b-3" data-name="b">
                <path id="a-10" data-name="a" class="cls-7" d="M151.2,20.8l14.3,50.1-37.4-31h46.2l-37.4,31,14.3-50.1Z"/>
                <path id="a-11" data-name="a" class="cls-7" d="M151.2,117.7l14.3,50.1-37.4-31h46.2l-37.4,31,14.3-50.1Z"/>
                <path id="a-12" data-name="a" class="cls-7" d="M151.2,214.6l14.3,50.1-37.4-31h46.2l-37.4,31,14.3-50.1Z"/>
                <path id="a-13" data-name="a" class="cls-7" d="M151.2,311.5l14.3,50.1-37.4-31h46.2l-37.4,31,14.3-50.1Z"/>
              </g>
              <path id="a-14" data-name="a" class="cls-7" d="M151.2,408.5l14.3,50.1-37.4-31h46.2l-37.4,31,14.3-50.1Z"/>
            </g>
            <g id="b-4" data-name="b">
              <path id="a-15" data-name="a" class="cls-7" d="M201.2,69.2l14.3,50.1-37.4-31h46.2l-37.4,31,14.3-50.1Z"/>
              <path id="a-16" data-name="a" class="cls-7" d="M201.2,166.2l14.3,50.1-37.4-31h46.2l-37.4,31,14.3-50.1Z"/>
              <path id="a-17" data-name="a" class="cls-7" d="M201.2,263.1l14.3,50.1-37.4-31h46.2l-37.4,31,14.3-50.1Z"/>
              <path id="a-18" data-name="a" class="cls-7" d="M201.2,360l14.3,50.1-37.4-31h46.2l-37.4,31,14.3-50.1Z"/>
            </g>
          </g>
        </g>
        <g id="d-2" data-name="d">
          <g id="c-3" data-name="c">
            <g id="e-3" data-name="e">
              <g id="b-5" data-name="b">
                <path id="a-19" data-name="a" class="cls-7" d="M251.2,20.8l14.3,50.1-37.4-31h46.2l-37.4,31,14.3-50.1Z"/>
                <path id="a-20" data-name="a" class="cls-7" d="M251.2,117.7l14.3,50.1-37.4-31h46.2l-37.4,31,14.3-50.1Z"/>
                <path id="a-21" data-name="a" class="cls-7" d="M251.2,214.6l14.3,50.1-37.4-31h46.2l-37.4,31,14.3-50.1Z"/>
                <path id="a-22" data-name="a" class="cls-7" d="M251.2,311.5l14.3,50.1-37.4-31h46.2l-37.4,31,14.3-50.1Z"/>
              </g>
              <path id="a-23" data-name="a" class="cls-7" d="M251.2,408.5l14.3,50.1-37.4-31h46.2l-37.4,31,14.3-50.1Z"/>
            </g>
            <g id="b-6" data-name="b">
              <path id="a-24" data-name="a" class="cls-7" d="M301.2,69.2l14.3,50.1-37.4-31h46.2l-37.4,31,14.3-50.1Z"/>
              <path id="a-25" data-name="a" class="cls-7" d="M301.2,166.2l14.3,50.1-37.4-31h46.2l-37.4,31,14.3-50.1Z"/>
              <path id="a-26" data-name="a" class="cls-7" d="M301.2,263.1l14.3,50.1-37.4-31h46.2l-37.4,31,14.3-50.1Z"/>
              <path id="a-27" data-name="a" class="cls-7" d="M301.2,360l14.3,50.1-37.4-31h46.2l-37.4,31,14.3-50.1Z"/>
            </g>
          </g>
          <g id="c-4" data-name="c">
            <g id="e-4" data-name="e">
              <g id="b-7" data-name="b">
                <path id="a-28" data-name="a" class="cls-7" d="M351.2,20.8l14.3,50.1-37.4-31h46.2l-37.4,31,14.3-50.1Z"/>
                <path id="a-29" data-name="a" class="cls-7" d="M351.2,117.7l14.3,50.1-37.4-31h46.2l-37.4,31,14.3-50.1Z"/>
                <path id="a-30" data-name="a" class="cls-7" d="M351.2,214.6l14.3,50.1-37.4-31h46.2l-37.4,31,14.3-50.1Z"/>
                <path id="a-31" data-name="a" class="cls-7" d="M351.2,311.5l14.3,50.1-37.4-31h46.2l-37.4,31,14.3-50.1Z"/>
              </g>
              <path id="a-32" data-name="a" class="cls-7" d="M351.2,408.5l14.3,50.1-37.4-31h46.2l-37.4,31,14.3-50.1Z"/>
            </g>
            <g id="b-8" data-name="b">
              <path id="a-33" data-name="a" class="cls-7" d="M401.2,69.2l14.3,50.1-37.4-31h46.2l-37.4,31,14.3-50.1Z"/>
              <path id="a-34" data-name="a" class="cls-7" d="M401.2,166.2l14.3,50.1-37.4-31h46.2l-37.4,31,14.3-50.1Z"/>
              <path id="a-35" data-name="a" class="cls-7" d="M401.2,263.1l14.3,50.1-37.4-31h46.2l-37.4,31,14.3-50.1Z"/>
              <path id="a-36" data-name="a" class="cls-7" d="M401.2,360l14.3,50.1-37.4-31h46.2l-37.4,31,14.3-50.1Z"/>
            </g>
          </g>
        </g>
        <g id="c-5" data-name="c">
          <g id="e-5" data-name="e">
            <g id="b-9" data-name="b">
              <path id="a-37" data-name="a" class="cls-7" d="M451.2,20.8l14.3,50.1-37.4-31h46.2l-37.4,31,14.3-50.1Z"/>
              <path id="a-38" data-name="a" class="cls-7" d="M451.2,117.7l14.3,50.1-37.4-31h46.2l-37.4,31,14.3-50.1Z"/>
              <path id="a-39" data-name="a" class="cls-7" d="M451.2,214.6l14.3,50.1-37.4-31h46.2l-37.4,31,14.3-50.1Z"/>
              <path id="a-40" data-name="a" class="cls-7" d="M451.2,311.5l14.3,50.1-37.4-31h46.2l-37.4,31,14.3-50.1Z"/>
            </g>
            <path id="a-41" data-name="a" class="cls-7" d="M451.2,408.5l14.3,50.1-37.4-31h46.2l-37.4,31,14.3-50.1Z"/>
          </g>
          <g id="b-10" data-name="b">
            <path id="a-42" data-name="a" class="cls-7" d="M501.2,69.2l14.3,50.1-37.4-31h46.2l-37.4,31,14.3-50.1Z"/>
            <path id="a-43" data-name="a" class="cls-7" d="M501.2,166.2l14.3,50.1-37.4-31h46.2l-37.4,31,14.3-50.1Z"/>
            <path id="a-44" data-name="a" class="cls-7" d="M501.2,263.1l14.3,50.1-37.4-31h46.2l-37.4,31,14.3-50.1Z"/>
            <path id="a-45" data-name="a" class="cls-7" d="M501.2,360l14.3,50.1-37.4-31h46.2l-37.4,31,14.3-50.1Z"/>
          </g>
        </g>
        <g id="e-6" data-name="e">
          <g id="b-11" data-name="b">
            <path id="a-46" data-name="a" class="cls-7" d="M551.2,20.8l14.3,50.1-37.4-31h46.2l-37.4,31,14.3-50.1Z"/>
            <path id="a-47" data-name="a" class="cls-7" d="M551.2,117.7l14.3,50.1-37.4-31h46.2l-37.4,31,14.3-50.1Z"/>
            <path id="a-48" data-name="a" class="cls-7" d="M551.2,214.6l14.3,50.1-37.4-31h46.2l-37.4,31,14.3-50.1Z"/>
            <path id="a-49" data-name="a" class="cls-7" d="M551.2,311.5l14.3,50.1-37.4-31h46.2l-37.4,31,14.3-50.1Z"/>
          </g>
          <path id="a-50" data-name="a" class="cls-7" d="M551.2,408.5l14.3,50.1-37.4-31h46.2l-37.4,31,14.3-50.1Z"/>
        </g>
      </g>
    </g>
    <g>
      <path class="cls-1" d="M2698.2,1376.5h900v780h-900v-780Z"/>
      <path class="cls-3" d="M2698.2,1376.5h600v780h-600v-780Z"/>
      <path class="cls-2" d="M2698.2,1376.5h300v780h-300v-780Z"/>
    </g>
  </g>
  <g id="_레이어_2" data-name="레이어 2">
    <g>
      <rect class="cls-5" width="1500" height="900"/>
      <rect class="cls-7" x="500" width="1000" height="900"/>
      <rect class="cls-8" x="1000" width="500" height="900"/>
    </g>
  </g>
</svg>